<svg width="24" height="25" viewBox="0 0 24 25" fill="none" xmlns="http://www.w3.org/2000/svg">
<path d="M17 2.4375H7C4.23858 2.4375 2 4.67608 2 7.4375V17.4375C2 20.1989 4.23858 22.4375 7 22.4375H17C19.7614 22.4375 22 20.1989 22 17.4375V7.4375C22 4.67608 19.7614 2.4375 17 2.4375Z" stroke="white" stroke-width="2" stroke-linecap="round" stroke-linejoin="round"/>
<path d="M16 11.8073C16.1234 12.6395 15.9812 13.4895 15.5937 14.2363C15.2062 14.9831 14.5931 15.5887 13.8416 15.967C13.0901 16.3452 12.2384 16.4769 11.4077 16.3432C10.5771 16.2096 9.80971 15.8174 9.21479 15.2225C8.61987 14.6275 8.22768 13.8602 8.09402 13.0295C7.96035 12.1988 8.09202 11.3472 8.47028 10.5957C8.84854 9.84417 9.45414 9.23106 10.2009 8.84356C10.9477 8.45606 11.7977 8.3139 12.63 8.43732C13.4789 8.5632 14.2648 8.95878 14.8716 9.56562C15.4785 10.1725 15.8741 10.9584 16 11.8073Z" stroke="white" stroke-width="2" stroke-linecap="round" stroke-linejoin="round"/>
<path d="M17.5 6.9375H17.51" stroke="white" stroke-width="2" stroke-linecap="round" stroke-linejoin="round"/>
</svg>
