<svg width="24" height="25" viewBox="0 0 24 25" fill="none" xmlns="http://www.w3.org/2000/svg">
<path d="M23 3.4373C22.0424 4.11278 20.9821 4.62941 19.86 4.96731C19.2577 4.27482 18.4573 3.784 17.567 3.56123C16.6767 3.33847 15.7395 3.3945 14.8821 3.72176C14.0247 4.04902 13.2884 4.63171 12.773 5.39102C12.2575 6.15034 11.9877 7.04964 12 7.9673V8.96729C10.2426 9.01286 8.50127 8.62312 6.93101 7.83275C5.36074 7.04238 4.01032 5.87594 3 4.4373C3 4.4373 -1 13.4373 8 17.4373C5.94053 18.8353 3.48716 19.5362 1 19.4373C10 24.4373 21 19.4373 21 7.93729C21 7.65729 20.97 7.37731 20.92 7.10731C21.9406 6.1008 22.6608 4.83002 23 3.4373Z" stroke="white" stroke-width="2" stroke-linecap="round" stroke-linejoin="round"/>
</svg>
